<?xml version="1.0" encoding="UTF-8"?>
<svg id="Layer_2" data-name="Layer 2" xmlns="http://www.w3.org/2000/svg" viewBox="0 0 648 137.71">
  <g id="Calque_1" data-name="Calque 1">
    <g>
      <g>
        <path d="M443.38,30.43c-6.16,0-11.97,1.46-17.13,4.03v-4.03h-21.3v107.29h21.3v-34.46c5.16,2.58,10.98,4.03,17.13,4.03,21.23,0,38.43-17.21,38.43-38.43s-17.21-38.43-38.43-38.43Zm0,55.57c-9.46,0-17.13-7.67-17.13-17.13s7.67-17.13,17.13-17.13,17.13,7.67,17.13,17.13-7.67,17.13-17.13,17.13Z" style="fill: #0c2332;"/>
        <path d="M373,30.43v4.03c-5.16-2.58-10.98-4.03-17.13-4.03-21.23,0-38.43,17.21-38.43,38.43s17.21,38.43,38.43,38.43c6.16,0,11.97-1.46,17.13-4.03v4.03h21.3V30.43h-21.3Zm-17.13,55.57c-9.46,0-17.13-7.67-17.13-17.13s7.67-17.13,17.13-17.13,17.13,7.67,17.13,17.13-7.67,17.13-17.13,17.13Z" style="fill: #0c2332;"/>
        <path d="M286.55,79.51c-3.14,3.95-7.98,6.49-13.42,6.49-9.46,0-17.13-7.67-17.13-17.13s7.67-17.13,17.13-17.13c5.44,0,10.28,2.54,13.42,6.49h23.52c-4.62-16.04-19.4-27.78-36.94-27.78-21.22,0-38.43,17.21-38.43,38.43s17.21,38.43,38.43,38.43c17.53,0,32.32-11.74,36.94-27.78h-23.52Z" style="fill: #0c2332;"/>
        <path d="M609.57,30.43c-6.16,0-11.97,1.46-17.13,4.03V0h-21.3V107.29h21.3v-4.03c5.16,2.58,10.98,4.03,17.13,4.03,21.23,0,38.43-17.21,38.43-38.43s-17.21-38.43-38.43-38.43Zm0,55.57c-9.46,0-17.13-7.67-17.13-17.13s7.67-17.13,17.13-17.13,17.13,7.67,17.13,17.13-7.67,17.13-17.13,17.13Z" style="fill: #0c2332;"/>
        <path d="M522.63,85.99l23.57-16.89h0s0-.02,0-.02c9.26-7.02,15.24-18.13,15.24-30.65,0-21.23-17.21-38.43-38.43-38.43-17.53,0-32.32,11.74-36.94,27.78h23.52c3.14-3.95,7.98-6.49,13.42-6.49,9.46,0,17.13,7.67,17.13,17.13,0,5.4-2.5,10.22-6.4,13.36-.09,.07-47.67,34.2-47.67,34.2v21.3h75.88v-21.3h-39.32Z" style="fill: #0c2332;"/>
      </g>
      <g>
        <polygon points="39.45 86.88 66.97 78.18 94.49 86.88 66.97 54.17 39.45 86.88" style="fill: #47ae50;"/>
        <path d="M148.05,0l-52.2,62.03-28.89-34.33L0,107.29H238.31L148.05,0ZM23.4,96.41l43.57-51.78,43.57,51.78H23.4Zm101.39,0l-12.75-15.15,37.18-11.75,46.17,14.6-46.17-54.87-40.48,48.11-5.76-6.85,45.07-53.57,66.86,79.48H124.79Z" style="fill: #47ae50;"/>
      </g>
    </g>
  </g>
</svg>